<?xml version="1.0" standalone="no"?>
<!DOCTYPE svg PUBLIC "-//W3C//DTD SVG 20010904//EN"
 "http://www.w3.org/TR/2001/REC-SVG-20010904/DTD/svg10.dtd">
<svg version="1.0" xmlns="http://www.w3.org/2000/svg"
 width="272.000000pt" height="185.000000pt" viewBox="0 0 272.000000 185.000000"
 preserveAspectRatio="xMidYMid meet">
<metadata>
Created by potrace 1.16, written by Peter Selinger 2001-2019
</metadata>
<g transform="translate(0.000000,185.000000) scale(0.100000,-0.100000)"
fill="#1d5e69" stroke="none">
<path d="M712 1218 l3 -623 68 -3 67 -3 0 626 0 625 -70 0 -70 0 2 -622z"/>
<path d="M200 1503 c-82 -14 -149 -53 -174 -102 -8 -15 -18 -51 -22 -79 l-7
-52 72 0 c45 0 71 4 71 11 0 6 7 26 16 44 39 83 227 86 269 4 27 -52 16 -126
-24 -156 -9 -7 -82 -35 -164 -64 -126 -44 -152 -57 -181 -89 -58 -65 -73 -216
-30 -307 34 -70 135 -113 269 -113 143 0 248 53 273 138 8 26 12 133 12 323 0
318 -5 341 -72 392 -59 45 -200 68 -308 50z m247 -638 c-6 -77 -22 -110 -62
-130 -48 -22 -152 -20 -192 5 -68 41 -65 159 5 207 18 12 76 36 128 53 57 19
98 39 102 49 10 24 24 -115 19 -184z"/>
<path d="M980 1142 c0 -210 4 -382 10 -401 12 -42 52 -86 105 -114 35 -19 56
-22 175 -22 132 0 136 1 190 31 41 23 61 42 78 74 22 44 22 50 22 422 l0 378
-70 0 -70 0 0 -352 c0 -388 -1 -391 -60 -420 -74 -38 -199 -14 -227 42 -9 19
-13 116 -13 378 l0 352 -70 0 -70 0 0 -368z"/>
<path d="M1875 1500 c-51 -13 -80 -27 -114 -56 -60 -51 -61 -55 -61 -474 l0
-381 68 3 67 3 5 368 5 369 23 19 c29 23 84 39 138 39 l42 0 15 60 15 60 -87
-1 c-47 -1 -99 -5 -116 -9z"/>
<path d="M2335 1504 c-11 -3 -37 -10 -58 -15 -46 -12 -105 -63 -123 -106 -8
-18 -14 -51 -14 -73 l0 -40 70 0 c60 0 70 3 70 18 0 9 9 31 20 49 42 69 194
71 255 3 15 -16 20 -36 20 -75 0 -78 -21 -95 -174 -146 -69 -23 -143 -51 -164
-63 -59 -32 -90 -92 -95 -185 -7 -131 24 -197 115 -242 42 -21 63 -24 169 -24
114 0 123 1 179 30 112 57 118 85 113 470 l-3 250 -27 47 c-42 70 -110 100
-236 104 -53 2 -106 1 -117 -2z m231 -718 c-21 -52 -63 -69 -154 -64 -69 3
-76 6 -103 36 -47 53 -38 144 21 189 8 6 61 28 117 48 56 20 108 44 115 52 20
25 24 -214 4 -261z"/>
<path d="M1331 339 c-21 -46 -64 -138 -95 -203 -31 -65 -56 -123 -56 -128 0
-5 19 -8 42 -6 35 2 45 8 56 31 13 26 15 27 97 27 84 0 85 0 100 -30 13 -26
21 -30 55 -30 22 0 40 4 40 9 0 13 -179 394 -190 405 -6 6 -24 -22 -49 -75z"/>
<path d="M2001 378 c-10 -24 -53 -116 -95 -206 -42 -90 -76 -165 -76 -168 0
-2 18 -4 40 -4 35 0 43 4 58 30 17 30 18 30 102 30 l86 0 11 -30 c10 -27 16
-30 52 -30 23 0 41 5 41 10 0 19 -184 410 -192 410 -5 0 -17 -19 -27 -42z"/>
<path d="M2320 416 c0 -3 -16 -95 -35 -203 -19 -108 -35 -198 -35 -200 0 -2
20 -3 44 -3 l44 0 6 63 c4 34 11 78 15 97 l7 35 53 -103 c30 -59 57 -102 64
-100 7 2 34 46 61 98 52 101 59 102 70 15 14 -106 14 -105 57 -105 30 0 39 4
39 18 0 51 -65 392 -74 389 -6 -2 -41 -59 -78 -128 -37 -68 -71 -123 -75 -123
-4 1 -38 57 -74 125 -37 68 -72 125 -78 127 -6 2 -11 1 -11 -2z"/>
<path d="M910 205 l0 -205 120 0 120 0 0 40 0 40 -75 0 -75 0 0 165 0 165 -45
0 -45 0 0 -205z"/>
<path d="M1560 370 l0 -40 50 0 50 0 0 -165 0 -165 40 0 40 0 0 165 0 165 50
0 50 0 0 40 0 40 -140 0 -140 0 0 -40z"/>
</g>
</svg>
